<svg id="Capa_1" data-name="Capa 1" xmlns="http://www.w3.org/2000/svg" viewBox="0 0 200 43.57"><defs><style>.cls-1{fill:#91aa9d;}.cls-2{fill:#fff;}</style></defs><title>logoFotografia</title><path class="cls-1" d="M63.65,0V28.52A15.15,15.15,0,0,1,48.43,43.57H45V37h3.57A8.28,8.28,0,0,0,57,28.7V6.61H45V0Z"/><path class="cls-1" d="M19.57,43.48V15A15.14,15.14,0,0,1,34.78,0h3.39V6.61H34.61a8.28,8.28,0,0,0-8.35,8.26v22H38.09v6.61Z"/><path class="cls-2" d="M41.65,15.22a6.52,6.52,0,1,0,6.61,6.52A6.59,6.59,0,0,0,41.65,15.22Zm0,12.52a6,6,0,1,1,6.09-6A6,6,0,0,1,41.65,27.74Z"/><path class="cls-2" d="M41.65,12.09a9.65,9.65,0,1,0,9.83,9.65A9.77,9.77,0,0,0,41.65,12.09Zm0,17a7.39,7.39,0,1,1,7.48-7.39A7.46,7.46,0,0,1,41.65,29.13Z"/><path class="cls-2" d="M7.22,15.57v3.65h9v5.39h-9v6.78H0V10.17H17.48v5.4Z"/><path class="cls-2" d="M80.35,30.52a8.43,8.43,0,0,1-4.26.87,8.58,8.58,0,0,1-5.48-1.65,6.23,6.23,0,0,1-1.91-5V20.43H66.35v-5H68.7V10.78h7v4.61h3.48v5H75.65v4.18a1.91,1.91,0,0,0,.44,1.22,1.18,1.18,0,0,0,1,.43,3,3,0,0,0,1.57-.43Z"/><path class="cls-2" d="M85.48,30.26a7.91,7.91,0,0,1-3.48-3,7.78,7.78,0,0,1-1.22-4.44,8,8,0,0,1,4.7-7.48,11.72,11.72,0,0,1,5-1.13,10.59,10.59,0,0,1,5,1.13A9.19,9.19,0,0,1,99,18.35a7.73,7.73,0,0,1,1.22,4.43A8.45,8.45,0,0,1,99,27.22a7.93,7.93,0,0,1-3.47,3,11.89,11.89,0,0,1-5,1.13A10.55,10.55,0,0,1,85.48,30.26Zm7-5a3.57,3.57,0,0,0,.78-2.44,3.57,3.57,0,0,0-.78-2.43,2.68,2.68,0,0,0-2-.87,2.52,2.52,0,0,0-2,.87,3.41,3.41,0,0,0-.78,2.43,3.57,3.57,0,0,0,.78,2.44,2.4,2.4,0,0,0,2,.87A2.84,2.84,0,0,0,92.52,25.22Z"/><path class="cls-2" d="M121.22,14.78V28.09c0,3.13-.87,5.48-2.7,7.13s-4.26,2.35-7.56,2.35a20.32,20.32,0,0,1-4.7-.53,11.27,11.27,0,0,1-3.74-1.56l2.35-4.7A8.7,8.7,0,0,0,107.39,32a12.11,12.11,0,0,0,2.87.43,4.27,4.27,0,0,0,3-.86,3.55,3.55,0,0,0,1-2.61V28.7a6,6,0,0,1-4.61,1.73,8.74,8.74,0,0,1-4-.95,7.59,7.59,0,0,1-3-2.78,8.29,8.29,0,0,1-1.13-4.18,7.7,7.7,0,0,1,4.08-6.95,8,8,0,0,1,4-1c2.26,0,4,.69,5,2.17V14.87l6.61-.09Zm-7.65,9.65a2.73,2.73,0,0,0,0-3.82,2.8,2.8,0,0,0-2.09-.7,3.15,3.15,0,0,0-2.09.7,2.73,2.73,0,0,0,0,3.82,2.8,2.8,0,0,0,2.09.79A3.79,3.79,0,0,0,113.57,24.43Z"/><path class="cls-2" d="M136.35,14.52v6.09a9.19,9.19,0,0,0-1.57-.09c-2.35,0-3.56,1.22-3.56,3.57v7.39h-7V14.78h6.61v1.83A7.14,7.14,0,0,1,136.35,14.52Z"/><path class="cls-2" d="M152.43,16.43q2.35,2,2.35,6v9h-6.43V29.22c-.78,1.65-2.35,2.52-4.78,2.52a8.08,8.08,0,0,1-3.4-.7,4.31,4.31,0,0,1-2.08-1.82,4.56,4.56,0,0,1-.7-2.61,4.17,4.17,0,0,1,1.91-3.74,10.4,10.4,0,0,1,5.74-1.3h2.79c-.26-1.31-1.31-1.92-3.13-1.92a6.55,6.55,0,0,0-2.27.35,6.1,6.1,0,0,0-2,1l-2.17-4.53A12,12,0,0,1,141.74,15a16.8,16.8,0,0,1,4.09-.52C148.61,14.52,151,15.13,152.43,16.43ZM147,27.22a2.56,2.56,0,0,0,.87-1.22V24.87h-1.74c-1.39,0-2.08.43-2.08,1.39a1.4,1.4,0,0,0,.43,1,1.71,1.71,0,0,0,1.22.35A2.45,2.45,0,0,0,147,27.22Z"/><path class="cls-2" d="M165.3,15.74H169v5h-3.48v10.7h-7V20.7h-2.26v-5h2.26a6.77,6.77,0,0,1,2-5.13,7.83,7.83,0,0,1,5.57-1.91,20,20,0,0,1,2.26.17,6.51,6.51,0,0,1,1.82.61l-1.65,4.78a3.93,3.93,0,0,0-1.56-.34,1.71,1.71,0,0,0-1.22.43,2.31,2.31,0,0,0-.44,1.48Z"/><path class="cls-2" d="M173.39,14.78h7V31.39h-7Zm4.26-6.61h6.61L178.17,13h-4.6Z"/><path class="cls-2" d="M197.65,16.43q2.35,2,2.35,6v9h-6.43V29.22c-.79,1.65-2.35,2.52-4.79,2.52a8.07,8.07,0,0,1-3.39-.7,4.33,4.33,0,0,1-2.09-1.82,4.55,4.55,0,0,1-.69-2.61,4.17,4.17,0,0,1,1.91-3.74,10.4,10.4,0,0,1,5.74-1.3H193c-.26-1.31-1.3-1.92-3.13-1.92a6.53,6.53,0,0,0-2.26.35,6,6,0,0,0-2,1l-2.17-4.53A11.87,11.87,0,0,1,187,15a16.78,16.78,0,0,1,4.08-.52A10.15,10.15,0,0,1,197.65,16.43Zm-5.48,10.79A2.56,2.56,0,0,0,193,26V24.87H191.3c-1.39,0-2.08.43-2.08,1.39a1.4,1.4,0,0,0,.43,1,1.71,1.71,0,0,0,1.22.35A2.08,2.08,0,0,0,192.17,27.22Z"/></svg>